<svg width="139" height="172" viewBox="0 0 139 172" fill="none" xmlns="http://www.w3.org/2000/svg">
<path fill-rule="evenodd" clip-rule="evenodd" d="M0.685611 17.2C0.685611 7.74 8.33961 0 17.7996 0H77.9996V12.9V60.2H125.3H138.2V154.8C138.2 164.26 130.46 172 121 172H17.7136C8.25361 172 0.599609 164.26 0.599609 154.8L0.685611 17.2Z" fill="#2B9FFC"/>
<path d="M138.2 51.6L86.5996 0H77.9996V12.9V60.2H125.3H138.2V51.6Z" fill="#2485D3"/>
<path d="M51.5965 98.8908H43.485C43.4274 98.2197 43.274 97.6108 43.0247 97.0643C42.785 96.5178 42.4494 96.048 42.018 95.6549C41.5961 95.2522 41.0831 94.9454 40.4791 94.7344C39.8751 94.5139 39.1895 94.4036 38.4225 94.4036C37.0801 94.4036 35.9439 94.7296 35.0139 95.3816C34.0935 96.0336 33.3935 96.9684 32.9141 98.1861C32.4443 99.4038 32.2094 100.866 32.2094 102.573C32.2094 104.375 32.4491 105.885 32.9285 107.103C33.4175 108.311 34.1222 109.222 35.0427 109.836C35.9631 110.44 37.0705 110.742 38.3649 110.742C39.1032 110.742 39.7648 110.651 40.3497 110.468C40.9345 110.277 41.4427 110.003 41.8742 109.649C42.3056 109.294 42.6556 108.867 42.9241 108.369C43.2021 107.86 43.3891 107.29 43.485 106.657L51.5965 106.715C51.5006 107.961 51.1506 109.232 50.5466 110.526C49.9425 111.811 49.0844 113 47.9722 114.093C46.8695 115.176 45.5032 116.049 43.8733 116.71C42.2433 117.372 40.3497 117.703 38.1923 117.703C35.4885 117.703 33.0627 117.123 30.915 115.962C28.7769 114.802 27.0846 113.096 25.8381 110.842C24.6013 108.589 23.9828 105.833 23.9828 102.573C23.9828 99.2935 24.6157 96.5322 25.8813 94.2886C27.1469 92.0354 28.8536 90.3335 31.0013 89.1829C33.149 88.0228 35.546 87.4427 38.1923 87.4427C40.0524 87.4427 41.7639 87.6968 43.3268 88.205C44.8896 88.7131 46.2607 89.4562 47.44 90.4342C48.6194 91.4026 49.5686 92.5963 50.2877 94.0153C51.0068 95.4343 51.443 97.0595 51.5965 98.8908ZM71.1022 97.0499C71.0255 96.0911 70.6659 95.3433 70.0235 94.8063C69.3907 94.2694 68.4271 94.0009 67.1327 94.0009C66.3081 94.0009 65.6322 94.1016 65.1048 94.303C64.5871 94.4947 64.2036 94.7584 63.9543 95.094C63.705 95.4296 63.5755 95.8131 63.5659 96.2445C63.5468 96.5993 63.6091 96.9205 63.7529 97.2081C63.9063 97.4862 64.146 97.7403 64.472 97.9704C64.798 98.1909 65.2151 98.3923 65.7233 98.5744C66.2314 98.7566 66.8355 98.9196 67.5354 99.0634L69.9516 99.5812C71.5816 99.9264 72.9766 100.382 74.1368 100.947C75.2969 101.513 76.2462 102.18 76.9844 102.947C77.7227 103.704 78.2644 104.557 78.6096 105.507C78.9644 106.456 79.1465 107.491 79.1561 108.613C79.1465 110.55 78.6623 112.189 77.7035 113.532C76.7447 114.874 75.3736 115.895 73.5903 116.595C71.8165 117.295 69.6831 117.645 67.1902 117.645C64.6302 117.645 62.3962 117.266 60.4882 116.509C58.5897 115.751 57.1132 114.586 56.0585 113.014C55.0134 111.432 54.4861 109.409 54.4765 106.945H62.0702C62.1181 107.846 62.3435 108.604 62.7462 109.217C63.1489 109.831 63.7146 110.296 64.4433 110.612C65.1815 110.929 66.0588 111.087 67.0752 111.087C67.9285 111.087 68.6428 110.981 69.2181 110.77C69.7934 110.56 70.2296 110.267 70.5269 109.893C70.8241 109.519 70.9775 109.093 70.9871 108.613C70.9775 108.162 70.8289 107.769 70.5413 107.434C70.2632 107.089 69.803 106.782 69.1606 106.513C68.5182 106.235 67.6505 105.976 66.5574 105.737L63.6235 105.104C61.0155 104.538 58.9589 103.594 57.4536 102.271C55.9578 100.938 55.2147 99.121 55.2243 96.8198C55.2147 94.9502 55.7133 93.3154 56.7201 91.9155C57.7364 90.5061 59.1411 89.4083 60.934 88.622C62.7366 87.8358 64.8028 87.4427 67.1327 87.4427C69.5105 87.4427 71.5672 87.8406 73.3026 88.6364C75.0381 89.4322 76.3756 90.554 77.3152 92.0018C78.2644 93.44 78.7438 95.1227 78.7534 97.0499H71.1022ZM90.2519 87.8454L96.2924 108.613H96.5225L102.563 87.8454H111.595L101.873 117.3H90.9423L81.22 87.8454H90.2519Z" fill="white"/>
</svg>
