<svg width="100" height="100" viewBox="0 0 100 100" fill="none" xmlns="http://www.w3.org/2000/svg">
<rect width="100" height="100" rx="50" fill="#2B9FFC" fill-opacity="0.2"/>
<path fill-rule="evenodd" clip-rule="evenodd" d="M46.8141 30.7611C46.9094 29.1357 47.4905 28.5439 49.3628 28H64.0177L74 37.7699C74 37.7699 74 58.3717 74 59.2212C74 60.0708 72.3009 61.5575 71.2389 61.5575C70.177 61.5575 51.0619 61.7699 49.5752 61.5575C48.0885 61.3451 47.0265 60.4956 47.0265 59.0089C47.0265 57.5221 46.8141 30.7611 46.8141 30.7611ZM62.1062 39.6814V30.3363L71.2389 39.6814H62.1062ZM67.2035 44.7788H53.6106V48.177H67.2035V44.7788ZM67.2035 51.5752H53.6106V54.9735H67.2035V51.5752Z" fill="#2B9FFC"/>
<path fill-rule="evenodd" clip-rule="evenodd" d="M26 41.5929C26.0953 39.9676 26.6764 39.3758 28.5487 38.8318H43.2035L53.1858 48.6018C53.1858 48.6018 53.1858 69.2035 53.1858 70.0531C53.1858 70.9026 51.4867 72.3894 50.4248 72.3894C49.3628 72.3894 30.2478 72.6018 28.7611 72.3894C27.2743 72.177 26.2124 71.3274 26.2124 69.8407C26.2124 68.354 26 41.5929 26 41.5929ZM41.292 50.5133V41.1681L50.4248 50.5133H41.292ZM46.3894 55.6106H32.7965V59.0088H46.3894V55.6106ZM46.3894 62.4071H32.7965V65.8053H46.3894V62.4071Z" fill="#2B9FFC"/>
</svg>
