<svg width="100" height="100" viewBox="0 0 100 100" fill="none" xmlns="http://www.w3.org/2000/svg">
<rect width="100" height="100" rx="50" fill="#FD6B70" fill-opacity="0.2"/>
<path fill-rule="evenodd" clip-rule="evenodd" d="M63.9806 33.0656C63.7777 33.4262 62.082 34.8177 61.2488 35.3072C59.3253 36.437 57.1688 37.1303 54.4606 37.4895L52.7044 37.7226L52.5899 38.5168C52.3698 40.0439 52.4699 45.2787 52.7487 46.8192C53.9028 53.1967 57.0468 57.385 62.695 60.0697L64.2052 60.7874L65.6986 60.0866C73.1712 56.5793 76.6504 49.6879 75.9 39.881C75.8107 38.7142 75.7253 37.7479 75.7103 37.7338C75.6952 37.7195 75.0562 37.6336 74.2903 37.5429C70.342 37.0757 67.369 35.8359 64.9782 33.6594C64.283 33.0265 64.0728 32.9014 63.9806 33.0656ZM27.2525 40.6548C25.8808 40.9427 24.762 41.8782 24.2692 43.1494C24.0147 43.8062 24 44.3665 24 53.4067C24 62.8549 24.0036 62.977 24.3023 63.6193C24.688 64.4491 25.5027 65.2597 26.3366 65.6435L26.9899 65.9442L45.2755 65.9823C65.5439 66.0244 64.4591 66.0717 65.6049 65.0958C66.4397 64.3847 66.9273 63.3214 67.0284 61.9913C67.0803 61.3101 67.0576 60.915 66.9671 60.915C66.8883 60.915 66.265 61.1756 65.582 61.494C64.1305 62.1709 64.1807 62.1756 62.1685 61.1771C56.3195 58.2752 52.8239 53.6169 51.6266 47.1297C51.3953 45.8754 51.1229 42.8247 51.1229 41.4861V40.6566L40.1954 40.6554C34.1853 40.6548 28.9476 40.6263 28.5561 40.5923C28.1645 40.5583 27.5779 40.5865 27.2525 40.6548ZM66.8785 41.444C67.7718 42.1521 68.0658 42.894 68.0658 44.4408C68.0658 45.2236 68.1235 45.7567 68.2082 45.7567C68.2987 45.7567 68.3506 46.8921 68.3506 48.8797V52.0029L68.001 52.3506L67.6516 52.6984H64.1568C60.852 52.6984 60.6467 52.6829 60.3774 52.415C60.1096 52.1485 60.0927 51.9428 60.0927 48.9442C60.0927 46.9136 60.1443 45.7567 60.235 45.7567C60.32 45.7567 60.3774 45.2121 60.3774 44.4063C60.3774 42.9091 60.539 42.3685 61.1762 41.7349C61.8917 41.0233 62.2572 40.9369 64.3869 40.9755C66.3193 41.0105 66.3355 41.0136 66.8785 41.444ZM62.3828 42.1733C61.6419 42.5605 61.3741 43.2011 61.3741 44.5856V45.7567H64.1504H66.9268V44.4087C66.9268 43.0718 66.9228 43.0565 66.4397 42.5316L65.9526 42.0025L64.4108 41.9608C63.1472 41.9267 62.7813 41.9651 62.3828 42.1733ZM34.0708 46.1488C34.52 46.5957 34.5376 46.6569 34.5846 47.9368C34.6219 48.9508 34.5796 49.3654 34.4042 49.7028C34.0037 50.4733 33.61 50.5734 30.9765 50.5734C28.3429 50.5734 27.9493 50.4733 27.5488 49.7028C27.3736 49.3658 27.3311 48.9517 27.3684 47.9454C27.4118 46.7733 27.4561 46.5872 27.773 46.2481C27.9688 46.0387 28.2571 45.8125 28.4137 45.7455C28.5703 45.6785 29.8026 45.6377 31.152 45.6548L33.6058 45.6858L34.0708 46.1488ZM63.4466 47.9133C63.1514 48.3328 63.1673 48.6205 63.5097 49.0537C63.7098 49.3067 63.7945 49.6284 63.7945 50.1353C63.7945 50.8424 63.8029 50.8567 64.2216 50.8567C64.645 50.8567 64.6487 50.8499 64.6487 50.0675C64.6487 49.5548 64.7236 49.2037 64.8623 49.0656C65.1555 48.7739 65.1305 48.1166 64.8155 47.8328C64.4337 47.489 63.7156 47.5312 63.4466 47.9133ZM34.8919 55.815V57.09H31.4748H28.0578V55.815V54.54H31.4748H34.8919V55.815ZM44.4011 55.8504L44.4423 57.09H41.0196H37.597V55.8125V54.5349L40.9785 54.5729L44.36 54.6109L44.4011 55.8504ZM53.8281 55.8942V57.09H50.411H46.9939V55.8884V54.6869L50.3042 54.6488C52.1249 54.628 53.6625 54.6306 53.7213 54.6546C53.7801 54.6787 53.8281 55.2365 53.8281 55.8942ZM45.3851 59.8415C45.4477 59.9524 45.4669 60.542 45.4278 61.1519L45.3566 62.2609L37.0275 62.3C32.4465 62.3215 28.5544 62.3044 28.3781 62.2619C28.0778 62.1895 28.0578 62.111 28.0578 61.0068C28.0578 60.359 28.1005 59.7864 28.1527 59.7345C28.2048 59.6825 32.0779 59.64 36.7594 59.64C43.9708 59.64 45.2887 59.6708 45.3851 59.8415Z" fill="#FD6B70"/>
</svg>
