<svg width="139" height="172" viewBox="0 0 139 172" fill="none" xmlns="http://www.w3.org/2000/svg">
<path fill-rule="evenodd" clip-rule="evenodd" d="M0.88544 17.2C0.88544 7.74 8.53944 0 17.9994 0H78.1994V12.9V60.2H125.499H138.399V154.8C138.399 164.26 130.659 172 121.199 172H17.9134C8.45344 172 0.799438 164.26 0.799438 154.8L0.88544 17.2Z" fill="#A459FF"/>
<path d="M138.399 51.6L86.7994 0H78.1994V12.9V60.2H125.499H138.399V51.6Z" fill="#894AD6"/>
<path d="M25.6363 87.8454H33.5177V108.038C33.5081 109.955 33.0239 111.643 32.0651 113.1C31.1159 114.548 29.8023 115.68 28.1244 116.495C26.4561 117.3 24.5337 117.703 22.3572 117.703C20.4683 117.703 18.7425 117.377 17.1796 116.725C15.6168 116.063 14.3703 115.028 13.4403 113.618C12.5102 112.199 12.05 110.358 12.0596 108.095H20.056C20.0848 108.834 20.2094 109.457 20.43 109.965C20.6601 110.473 20.9765 110.857 21.3792 111.116C21.7915 111.365 22.2901 111.49 22.8749 111.49C23.4694 111.49 23.968 111.36 24.3707 111.101C24.7829 110.842 25.0946 110.459 25.3055 109.951C25.5164 109.433 25.6267 108.795 25.6363 108.038V87.8454ZM53.1852 97.0499C53.1085 96.0911 52.7489 95.3433 52.1065 94.8063C51.4737 94.2694 50.5101 94.0009 49.2157 94.0009C48.3911 94.0009 47.7152 94.1016 47.1878 94.303C46.6701 94.4947 46.2866 94.7584 46.0373 95.094C45.788 95.4296 45.6585 95.8131 45.649 96.2445C45.6298 96.5993 45.6921 96.9205 45.8359 97.2081C45.9893 97.4862 46.229 97.7403 46.555 97.9704C46.881 98.1909 47.2981 98.3923 47.8063 98.5744C48.3144 98.7566 48.9185 98.9196 49.6184 99.0634L52.0346 99.5812C53.6646 99.9264 55.0596 100.382 56.2198 100.947C57.38 101.513 58.3292 102.18 59.0674 102.947C59.8057 103.704 60.3475 104.557 60.6926 105.507C61.0474 106.456 61.2296 107.491 61.2391 108.613C61.2296 110.55 60.7454 112.189 59.7866 113.532C58.8277 114.874 57.4567 115.895 55.6733 116.595C53.8995 117.295 51.7661 117.645 49.2732 117.645C46.7132 117.645 44.4792 117.266 42.5712 116.509C40.6728 115.751 39.1962 114.586 38.1415 113.014C37.0964 111.432 36.5691 109.409 36.5595 106.945H44.1532C44.2012 107.846 44.4265 108.604 44.8292 109.217C45.2319 109.831 45.7976 110.296 46.5263 110.612C47.2645 110.929 48.1419 111.087 49.1582 111.087C50.0115 111.087 50.7258 110.981 51.3011 110.77C51.8764 110.56 52.3127 110.267 52.6099 109.893C52.9071 109.519 53.0605 109.093 53.0701 108.613C53.0605 108.162 52.9119 107.769 52.6243 107.434C52.3462 107.089 51.886 106.782 51.2436 106.513C50.6012 106.235 49.7335 105.976 48.6404 105.737L45.7065 105.104C43.0985 104.538 41.0419 103.594 39.5366 102.271C38.0408 100.938 37.2978 99.121 37.3073 96.8198C37.2978 94.9502 37.7963 93.3154 38.8031 91.9155C39.8194 90.5061 41.2241 89.4083 43.017 88.622C44.8196 87.8358 46.8858 87.4427 49.2157 87.4427C51.5936 87.4427 53.6502 87.8406 55.3856 88.6364C57.1211 89.4322 58.4586 90.554 59.3982 92.0018C60.3475 93.44 60.8269 95.1227 60.8364 97.0499H53.1852ZM92.815 102.573C92.815 105.852 92.1774 108.618 90.9022 110.871C89.627 113.115 87.9059 114.817 85.739 115.977C83.5721 117.127 81.1559 117.703 78.4905 117.703C75.8058 117.703 73.38 117.123 71.2131 115.962C69.0558 114.793 67.3395 113.086 66.0643 110.842C64.7987 108.589 64.1659 105.833 64.1659 102.573C64.1659 99.2935 64.7987 96.5322 66.0643 94.2886C67.3395 92.0354 69.0558 90.3335 71.2131 89.1829C73.38 88.0228 75.8058 87.4427 78.4905 87.4427C81.1559 87.4427 83.5721 88.0228 85.739 89.1829C87.9059 90.3335 89.627 92.0354 90.9022 94.2886C92.1774 96.5322 92.815 99.2935 92.815 102.573ZM84.5885 102.573C84.5885 100.808 84.3536 99.3223 83.8837 98.1142C83.4235 96.8965 82.738 95.9761 81.8271 95.3529C80.9258 94.72 79.8136 94.4036 78.4905 94.4036C77.1673 94.4036 76.0503 94.72 75.1394 95.3529C74.2382 95.9761 73.5526 96.8965 73.0828 98.1142C72.6226 99.3223 72.3925 100.808 72.3925 102.573C72.3925 104.337 72.6226 105.828 73.0828 107.045C73.5526 108.254 74.2382 109.174 75.1394 109.807C76.0503 110.43 77.1673 110.742 78.4905 110.742C79.8136 110.742 80.9258 110.43 81.8271 109.807C82.738 109.174 83.4235 108.254 83.8837 107.045C84.3536 105.828 84.5885 104.337 84.5885 102.573ZM122 87.8454V117.3H115.327L104.684 101.825H104.511V117.3H96.5148V87.8454H103.303L113.773 103.263H114.003V87.8454H122Z" fill="white"/>
</svg>
