<svg width="138" height="172" viewBox="0 0 138 172" fill="none" xmlns="http://www.w3.org/2000/svg">
<path fill-rule="evenodd" clip-rule="evenodd" d="M0.086002 17.2C0.086002 7.74 7.74 0 17.2 0H77.4V12.9V60.2H124.7H137.6V154.8C137.6 164.26 129.86 172 120.4 172H17.114C7.654 172 0 164.26 0 154.8L0.086002 17.2Z" fill="#FD6B70"/>
<path d="M137.6 51.6L86 0H77.4V12.9V60.2H124.7H137.6V51.6Z" fill="#CC5559"/>
<path d="M28.8984 117.3V87.8454H41.6121C43.7982 87.8454 45.711 88.2769 47.3506 89.1398C48.9902 90.0027 50.2654 91.2156 51.1762 92.7785C52.0871 94.3413 52.5425 96.1678 52.5425 98.258C52.5425 100.367 52.0727 102.194 51.1331 103.738C50.203 105.281 48.8943 106.47 47.2068 107.304C45.5289 108.139 43.5681 108.556 41.3245 108.556H33.7308V102.343H39.7137C40.6533 102.343 41.4539 102.18 42.1155 101.854C42.7867 101.518 43.2996 101.043 43.6544 100.43C44.0187 99.8161 44.2009 99.0922 44.2009 98.258C44.2009 97.4143 44.0187 96.6952 43.6544 96.1007C43.2996 95.4967 42.7867 95.0364 42.1155 94.72C41.4539 94.394 40.6533 94.231 39.7137 94.231H36.8948V117.3H28.8984ZM66.8096 117.3H55.4765V87.8454H66.6945C69.7243 87.8454 72.3419 88.4351 74.5471 89.6144C76.762 90.7841 78.4686 92.4716 79.6672 94.6769C80.8752 96.8726 81.4793 99.5045 81.4793 102.573C81.4793 105.641 80.88 108.278 79.6815 110.483C78.483 112.678 76.7859 114.366 74.5903 115.545C72.3946 116.715 69.801 117.3 66.8096 117.3ZM63.4729 110.512H66.5219C67.9793 110.512 69.221 110.277 70.2469 109.807C71.2824 109.337 72.0686 108.527 72.6055 107.376C73.1521 106.226 73.4253 104.625 73.4253 102.573C73.4253 100.521 73.1473 98.9196 72.5912 97.769C72.0446 96.6185 71.2392 95.8083 70.175 95.3385C69.1203 94.8687 67.8259 94.6337 66.2918 94.6337H63.4729V110.512ZM85.1791 117.3V87.8454H105.889V94.2886H93.1755V99.3511H104.624V105.794H93.1755V117.3H85.1791Z" fill="white"/>
</svg>
