<svg width="100" height="100" viewBox="0 0 100 100" fill="none" xmlns="http://www.w3.org/2000/svg">
<rect width="100" height="100" rx="50" fill="#2B9FFC" fill-opacity="0.2"/>
<path fill-rule="evenodd" clip-rule="evenodd" d="M37.8889 36.4125C37.8889 33.975 39.1042 33 40.8056 33L57.3333 33L59.2778 33L69 42.9938V44.7V69.075C69 71.025 68.0278 72 65.8403 72H41.0486C39.3472 72 37.8889 71.025 37.8889 69.075V64.4438C35.6228 64.128 34 63.4688 34 61.5188V50.0625C34 47.1375 37.8889 46.65 37.8889 46.65V36.4125ZM57.3333 44.7H65.1111H67.5044V43.2917L58.8433 34.4587H57.3333V36.9V44.7ZM46.6389 59.8125V50.3063H49.5556V59.8125H46.6389ZM50.5278 52.2563V50.3063H58.3056V51.7688L53.9306 57.6188H58.3056V59.8125H50.5278V58.35L55.1458 52.2563H50.5278ZM59.7639 59.8125V50.3063H66.5694V52.2563H62.4375V53.9625H66.0833V56.1563H62.4375V57.6188H66.5694V59.8125H59.7639ZM43.2361 50.3063C44.9375 50.7938 45.5897 51.7987 45.6667 53.2313H43.2361C42.8476 52.3695 41.7778 52.2563 41.5347 52.2563C41.2917 52.2563 40.3194 52.5 40.8056 53.2313C41.1553 53.7573 41.3792 53.7788 42.0204 53.8402C42.2704 53.8641 42.5839 53.8941 42.9931 53.9625C44.4514 54.2063 45.4236 54.6938 45.6667 56.1563C45.9097 57.6188 45.6667 58.35 44.4514 59.325C43.2361 60.3 40.3194 60.3 39.1042 59.325C37.8889 58.35 37.798 57.5623 37.8889 56.4H40.0764C40.1765 56.5338 40.2062 56.6037 40.2343 56.6697C40.2862 56.7917 40.3326 56.9007 40.8056 57.375C41.5347 58.1063 42.7708 57.9835 42.9931 57.375C43.2153 56.7665 42.75 56.1563 41.5347 55.9125C41.3611 55.8777 41.2024 55.8478 41.055 55.8201C40.1706 55.6538 39.6944 55.5643 38.8611 54.9375C37.8889 54.2063 37.8889 52.0125 38.8611 51.0375C39.8333 50.0625 41.5347 49.8188 43.2361 50.3063Z" fill="#2B9FFC"/>
</svg>
