<svg width="155" height="185" viewBox="0 0 155 185" fill="none" xmlns="http://www.w3.org/2000/svg">
<path d="M76.875 0H15.375C6.91875 0 0.0768768 7.29 0.0768768 16.2L0 145.8C0 154.71 6.84187 162 15.2981 162H80.5C77.4223 158.242 81.6753 154.531 80.5 151H15.2981C10.7211 150.775 9.12353 149.68 9 145V16.2C9 13.5 9.5 11 15.375 11H74V56.7H114V109.5C116.911 110.492 119.926 107.668 123 109.5V48.6L76.875 0Z" fill="#FD892F"/>
<rect x="28" y="74" width="67" height="5" fill="#FD892F"/>
<rect x="28" y="89" width="67" height="5" fill="#FD892F"/>
<rect x="28" y="104" width="67" height="5" fill="#FD892F"/>
<rect x="28" y="119" width="59" height="5" fill="#FD892F"/>
<circle cx="115" cy="145" r="36.5" stroke="#FD892F" stroke-width="7"/>
<path d="M101.624 141.64H111.341V132.105H117.818V141.64H127.535V147.997H117.818V157.532H111.341V147.997H101.624V141.64Z" fill="#FD892F"/>
</svg>
