<svg width="100" height="100" viewBox="0 0 100 100" fill="none" xmlns="http://www.w3.org/2000/svg">
<rect width="100" height="100" rx="50" fill="#2DBFC3" fill-opacity="0.2"/>
<path d="M26.2222 66H32.2222V57.5C32.3642 56.0075 32.862 55.3431 33.9722 54.25C30.4298 54.6804 26.7222 57.5 26.2222 58.25C25.7222 59 26.2222 66 26.2222 66Z" fill="#2DBFC3"/>
<path d="M36.2222 58C38.7647 54.6985 42.9722 53.5 45.4722 52.75C47.9722 52 52.2222 52.25 54.9722 52.75C57.7222 53.25 64.6413 57.4871 63.9722 58V65.75H36.2222V58Z" fill="#2DBFC3"/>
<path d="M66.2222 54C69.7361 54.4964 73.7222 57 74.2222 58.25C74.7222 59.5 74.2222 66 74.2222 66H68.2222V58.25C68.1001 56.3136 67.6804 55.3755 66.2222 54Z" fill="#2DBFC3"/>
<circle cx="35.2222" cy="45" r="5" fill="#2DBFC3"/>
<circle cx="50.2222" cy="41" r="7" fill="#2DBFC3"/>
<circle cx="65.2222" cy="45" r="5" fill="#2DBFC3"/>
</svg>
