<svg width="139" height="172" viewBox="0 0 139 172" fill="none" xmlns="http://www.w3.org/2000/svg">
<path fill-rule="evenodd" clip-rule="evenodd" d="M0.885807 17.2C0.885807 7.74 8.5398 0 17.9998 0H78.1998V12.9V60.2H125.5H138.4V154.8C138.4 164.26 130.66 172 121.2 172H17.9138C8.4538 172 0.799805 164.26 0.799805 154.8L0.885807 17.2Z" fill="#2DBFC3"/>
<path d="M138.4 51.6L86.7998 0H78.1998V12.9V60.2H125.5H138.4V51.6Z" fill="#23999C"/>
<path d="M38.27 87.8454L43.1023 96.4171H43.3325L48.2224 87.8454H57.1393L48.3374 102.573L57.4844 117.3H48.3374L43.3325 108.556H43.1023L38.0974 117.3H29.0079L38.0399 102.573L29.2955 87.8454H38.27ZM60.5874 117.3V87.8454H68.5838V110.857H80.4922V117.3H60.5874ZM99.6024 97.0499C99.5257 96.0911 99.1661 95.3433 98.5237 94.8063C97.8909 94.2694 96.9273 94.0009 95.6329 94.0009C94.8084 94.0009 94.1324 94.1016 93.6051 94.303C93.0873 94.4947 92.7038 94.7584 92.4545 95.094C92.2052 95.4296 92.0758 95.8131 92.0662 96.2445C92.047 96.5993 92.1093 96.9205 92.2531 97.2081C92.4065 97.4862 92.6462 97.7403 92.9722 97.9704C93.2982 98.1909 93.7153 98.3923 94.2235 98.5744C94.7317 98.7566 95.3357 98.9196 96.0356 99.0634L98.4518 99.5812C100.082 99.9264 101.477 100.382 102.637 100.947C103.797 101.513 104.746 102.18 105.485 102.947C106.223 103.704 106.765 104.557 107.11 105.507C107.465 106.456 107.647 107.491 107.656 108.613C107.647 110.55 107.163 112.189 106.204 113.532C105.245 114.874 103.874 115.895 102.09 116.595C100.317 117.295 98.1834 117.645 95.6905 117.645C93.1304 117.645 90.8964 117.266 88.9884 116.509C87.09 115.751 85.6134 114.586 84.5587 113.014C83.5136 111.432 82.9863 109.409 82.9767 106.945H90.5704C90.6184 107.846 90.8437 108.604 91.2464 109.217C91.6491 109.831 92.2148 110.296 92.9435 110.612C93.6818 110.929 94.5591 111.087 95.5754 111.087C96.4287 111.087 97.143 110.981 97.7183 110.77C98.2936 110.56 98.7299 110.267 99.0271 109.893C99.3243 109.519 99.4777 109.093 99.4873 108.613C99.4777 108.162 99.3291 107.769 99.0415 107.434C98.7634 107.089 98.3032 106.782 97.6608 106.513C97.0184 106.235 96.1507 105.976 95.0576 105.737L92.1237 105.104C89.5157 104.538 87.4591 103.594 85.9538 102.271C84.458 100.938 83.715 99.121 83.7246 96.8198C83.715 94.9502 84.2135 93.3154 85.2203 91.9155C86.2366 90.5061 87.6413 89.4083 89.4342 88.622C91.2368 87.8358 93.303 87.4427 95.6329 87.4427C98.0108 87.4427 100.067 87.8406 101.803 88.6364C103.538 89.4322 104.876 90.554 105.815 92.0018C106.765 93.44 107.244 95.1227 107.254 97.0499H99.6024Z" fill="white"/>
</svg>
